PathFileType	4	(X/Y/Z)	D:\MotionData\Pi-Spi Study\20230118_AMCsubject1\Trimmed_right_abd_001_rotated.trc
DataRate	CameraRate	NumFrames	NumMarkers	Units	OrigDataRate	OrigDataStartFrame	OrigNumFrames
200.00	200.00	       4	35	mm	200.00	1	       271
Frame#	Time	C7			Sternum			r_AMC1			r_AMC2			r_AMC3			l_AMC1			l_AMC2			l_AMC3			PX			T8			r_humerous			r_elbow_medial			r_elbow_lateral			r_forearm			r_wrist_radius			r_wrist_ulna			r_MCP_1			r_MCP_3			l_humerous			l_elbow_medial			l_elbow_lateral			l_forearm			l_wrist_radius			l_wrist_ulna			l_MCP_1			l_MCP_3			r_ASIS			r_PSIS			l_ASIS			l_PSIS			r_IC			l_IC			TS			AI			AA			
		X1	Y1	Z1	X2	Y2	Z2	X3	Y3	Z3	X4	Y4	Z4	X5	Y5	Z5	X6	Y6	Z6	X7	Y7	Z7	X8	Y8	Z8	X9	Y9	Z9	X10	Y10	Z10	X11	Y11	Z11	X12	Y12	Z12	X13	Y13	Z13	X14	Y14	Z14	X15	Y15	Z15	X16	Y16	Z16	X17	Y17	Z17	X18	Y18	Z18	X19	Y19	Z19	X20	Y20	Z20	X21	Y21	Z21	X22	Y22	Z22	X23	Y23	Z23	X24	Y24	Z24	X25	Y25	Z25	X26	Y26	Z26	X27	Y27	Z27	X28	Y28	Z28	X29	Y29	Z29	X30	Y30	Z30	X31	Y31	Z31	X32	Y32	Z32	X33	Y33	Z33	X34	Y34	Z34	X35	Y35	Z35	

1	0	198.4409	1376.1847	-211.4509	324.1844	1300.9415	-200.0326	196.2107	1321.7696	-44.7068	233.0222	1317.9022	-11.4297	256.5176	1350.392	-32.212	224.7778	1326.1962	-375.951	265.8275	1317.1516	-406.0503	289.127	1349.9136	-373.9126	377.0923	1110.9029	-193.9165	146.2012	1192.6534	-222.5117	292.055	1125.2144	-8.1902	207.5981	992.2128	-27.8675	234.0884	997.9174	32.6627	280.8586	839.4706	41.526	325.9464	777.3745	17.9071	278.1359	770.4481	36.5755	338.1498	677.8081	31.2202	296.6236	690.3172	42.563	319.1811	1115.2882	-390.3449	219.6046	998.6377	-407.744	258.8175	992.8657	-447.6501	308.8986	840.6316	-441.2796	338.5181	769.8598	-408.3294	302.2901	765.6154	-435.7708	353.3915	692.9818	-417.7457	310.1404	690.5798	-441.2313	362.0475	908.0231	-67.9667	174.0091	922.2834	-159.3704	371.4222	895.6351	-330.0879	178.5451	916.4244	-263.0344	273.0688	966.6355	-42.4864	281.6565	940.5375	-369.3191	108.388	1304.3754	-96.7195	100.7563	1202.83	-89.1275	184.8967	1301.1838	26.5756
2	0.005	198.4967	1376.199	-211.4124	324.8151	1300.9707	-199.7355	196.2701	1321.8032	-44.6966	233.1118	1317.8591	-11.4314	256.5815	1350.3994	-32.193	224.8022	1326.2771	-375.9394	265.9495	1317.1119	-406.0166	289.2634	1349.8242	-373.8633	377.0619	1110.9012	-193.8862	146.2322	1192.6798	-222.479	292.1042	1125.1704	-8.2007	207.6099	992.2327	-27.8532	234.1354	997.9255	32.6737	280.8481	839.4679	41.5497	325.8941	777.4434	17.9719	278.1602	770.4677	36.5486	338.1551	677.8372	31.2399	296.5281	690.4659	42.5705	319.1688	1115.3357	-390.3079	219.7651	999.0965	-407.7253	258.5737	992.5785	-447.6482	308.887	840.7249	-441.2863	338.5268	769.8253	-408.3252	302.2699	765.6185	-435.738	353.3886	692.9141	-417.726	310.0942	690.7138	-441.2842	361.5139	907.7073	-67.8857	174.0316	922.3091	-159.3316	371.4294	895.6459	-330.1075	178.5462	916.4509	-263.0469	273.1007	966.619	-42.5104	281.7183	940.4448	-369.4167	108.4327	1304.3832	-96.6995	100.8084	1202.8425	-89.1296	184.9349	1301.1206	26.6112
3	0.01	198.5691	1376.2162	-211.4176	324.8677	1300.9697	-199.7449	196.333	1321.7915	-44.6892	233.1236	1317.9198	-11.4432	256.6227	1350.3856	-32.1528	224.8605	1326.2892	-375.937	266.0321	1317.0895	-406.0507	289.3339	1349.8511	-373.9163	377.0672	1110.9193	-193.8498	146.2587	1192.71	-222.5015	292.1498	1125.1999	-8.1666	207.603	992.2393	-27.8307	234.1578	997.9521	32.6961	280.8919	839.5068	41.5451	325.9519	777.4321	17.9169	278.1771	770.461	36.564	338.1514	677.8428	31.2573	296.5492	690.4149	42.5561	319.2037	1115.3336	-390.3227	219.7733	999.1186	-407.721	258.5831	992.6035	-447.635	308.8455	840.7314	-441.2492	338.5364	769.8591	-408.3124	302.2021	765.6702	-435.7357	353.3787	692.9475	-417.7092	310.1024	690.631	-441.219	361.5578	907.7358	-67.8755	174.045	922.3215	-159.3401	371.4555	895.6394	-330.1215	178.5747	916.4464	-263.0005	273.1103	966.5953	-42.532	281.4754	940.4975	-369.3569	108.4794	1304.4071	-96.6522	100.866	1202.8433	-89.126	185.0219	1301.1165	26.6342
4	0.015	198.6295	1376.2477	-211.3865	324.923	1300.9622	-199.7137	196.3698	1321.8337	-44.6698	233.1674	1317.9275	-11.3838	256.6963	1350.3912	-32.119	224.9016	1326.2952	-375.9196	266.0896	1317.0953	-406.0158	289.1951	1350.0754	-373.8602	377.0895	1110.906	-193.8701	146.2982	1192.7181	-222.4879	292.1821	1125.2018	-8.1314	207.6188	992.2532	-27.812	234.1672	997.9324	32.7131	280.8358	839.553	41.5826	325.9249	777.4454	17.9583	278.1809	770.4653	36.5864	338.1633	677.8522	31.2284	296.5258	690.4295	42.5533	319.2165	1115.3283	-390.3444	219.734	998.9423	-407.7039	258.8237	992.9136	-447.6514	308.8401	840.7217	-441.2312	338.4611	769.9066	-408.3437	302.1919	765.7018	-435.6991	353.3763	692.93	-417.7452	309.9886	690.7613	-441.2566	361.5301	907.7705	-67.8888	174.0484	922.3101	-159.3384	371.4825	895.678	-330.1001	178.5765	916.4247	-263.0345	273.0279	966.7234	-42.525	281.6191	940.5246	-369.2994	108.5529	1304.418	-96.6359	100.9134	1202.8748	-89.113	185.0722	1301.0971	26.6668
